# xmcd CD database file
#
# Track frame offsets:
#	150
#	16937
#	45825
#	64150
#	80857
#	98250
#	114450
#	136697
#	155557
#	172447
#	188900
#	204790
#	222362
#	240692
#	257835
#	274730
#	291000
#	305175
#	323790
#
# Disc length: 4537 seconds
#
# Revision: 0
# Processed by: cddbd v1.4PL0 Copyright (c) Steve Scherf et al.
# Submitted via: Feurio! 1.65 - http://www.feurio.com
#
DISCID=1011b713
DTITLE=TAKE THAT - GREATEST HITS
DYEAR=1900
DGENRE=Folk
TTITLE0=How Deep Is Your Love
TTITLE1=Never Forget
TTITLE2=Back For Good
TTITLE3=Sure
TTITLE4=Love Ain't Here Anymore
TTITLE5=Everthing Changes
TTITLE6=Babe
TTITLE7=Relight My Fire
TTITLE8=Pray
TTITLE9=Why Can't I Wake Up With You
TTITLE10=Could It Be Magic
TTITLE11=A Million Love Songs
TTITLE12=I Found Haven
TTITLE13=It Only Takes A Minute
TTITLE14=Once You've Tasted Love
TTITLE15=Promises
TTITLE16=Do What U Like
TTITLE17=Love Ain't Here Anymore (U.S. Version)
TTITLE18=Unknown
EXTD=
EXTT0=
EXTT1=
EXTT2=
EXTT3=
EXTT4=
EXTT5=
EXTT6=
EXTT7=
EXTT8=
EXTT9=
EXTT10=
EXTT11=
EXTT12=
EXTT13=
EXTT14=
EXTT15=
EXTT16=
EXTT17=
EXTT18=
PLAYORDER=
